<?xml version="1.0" standalone="no"?>
<!DOCTYPE svg PUBLIC "-//W3C//DTD SVG 20010904//EN"
 "http://www.w3.org/TR/2001/REC-SVG-20010904/DTD/svg10.dtd">
<svg version="1.0" xmlns="http://www.w3.org/2000/svg"
 width="132.000000pt" height="132.000000pt" viewBox="0 0 132.000000 132.000000"
 preserveAspectRatio="xMidYMid meet">
<metadata>
Created by potrace 1.14, written by Peter Selinger 2001-2017
</metadata>
<g transform="translate(0.000000,132.000000) scale(0.100000,-0.100000)"
fill="#000000" stroke="none">
<path d="M734 1210 c-12 -4 -31 -21 -43 -36 -18 -23 -30 -28 -82 -30 -79 -4
-92 -9 -126 -47 -20 -22 -35 -31 -51 -29 -52 8 -119 -49 -110 -91 2 -8 -11
-28 -29 -46 -40 -40 -50 -87 -29 -133 9 -19 21 -59 26 -89 5 -29 23 -130 40
-224 17 -93 33 -186 36 -205 14 -83 32 -172 36 -176 3 -2 23 -5 46 -6 24 -1
39 -5 35 -11 -4 -6 -1 -7 8 -2 24 15 68 13 62 -3 -3 -7 -9 -10 -12 -5 -3 4
-14 9 -25 10 -26 2 -6 -16 23 -20 13 -2 30 -11 36 -21 8 -11 15 -13 20 -7 3 6
1 11 -5 11 -6 0 -8 5 -5 10 10 16 21 12 34 -12 9 -20 10 -20 6 -3 -4 16 0 21
15 22 13 1 18 -2 13 -10 -4 -7 0 -6 10 2 14 11 20 11 34 0 13 -11 15 -11 9 -1
-6 9 -3 12 10 10 11 -2 22 -7 25 -11 3 -5 9 -1 12 8 4 9 3 13 -3 10 -16 -10
-11 1 7 16 11 10 14 10 9 2 -9 -17 6 -17 23 0 11 10 13 10 7 0 -4 -7 -2 -13 3
-13 6 0 11 4 11 9 0 5 10 8 23 7 13 0 24 -6 24 -13 0 -9 -6 -9 -20 -1 -15 8
-18 7 -12 -3 6 -8 4 -10 -5 -4 -9 6 -11 4 -5 -4 6 -10 3 -11 -13 -2 -15 8 -23
8 -28 -1 -4 -7 -3 -8 4 -4 7 4 12 2 12 -3 0 -6 6 -10 13 -8 6 1 11 -3 10 -10
-2 -7 4 -10 13 -6 11 4 12 8 4 13 -9 6 -9 9 0 15 6 4 18 -1 26 -11 10 -14 13
-15 9 -3 -4 10 0 16 10 16 8 0 15 -4 15 -9 0 -5 4 -6 10 -3 17 11 11 24 -10
20 -11 -2 -20 0 -20 6 0 5 3 9 8 10 4 0 15 2 25 4 9 2 15 -1 11 -6 -3 -5 0 -9
6 -9 7 0 8 -6 0 -19 -5 -11 -6 -22 -2 -25 8 -5 12 8 13 46 0 10 5 20 10 23 5
4 6 11 3 17 -4 7 -2 8 5 4 6 -4 14 -1 17 7 2 7 12 14 20 14 8 0 13 -5 11 -11
-3 -6 -9 -10 -15 -9 -5 1 -16 -4 -22 -12 -9 -11 -9 -15 -1 -15 6 0 11 5 11 11
0 5 5 7 10 4 6 -4 7 -11 4 -17 -5 -7 -2 -8 5 -4 7 5 10 11 7 14 -3 3 -1 11 5
18 7 9 7 19 -1 33 -10 20 -7 25 13 22 5 -1 6 3 2 9 -3 6 -10 8 -15 5 -4 -3
-10 -2 -13 2 -2 5 -2 1 0 -7 3 -11 1 -12 -8 -3 -16 16 -3 32 21 26 11 -3 20
-1 20 4 0 5 -13 9 -30 8 -24 -1 -28 1 -18 12 8 10 13 11 18 2 6 -8 9 -8 15 0
5 9 11 9 23 -1 15 -12 16 -11 4 4 -8 9 -20 14 -28 11 -8 -3 -14 0 -14 7 0 9
-4 9 -17 -1 -15 -11 -14 -10 1 9 13 15 15 22 6 22 -10 0 -10 3 0 14 6 8 18 12
25 10 7 -3 18 4 24 15 10 17 9 20 -4 15 -8 -3 -13 -10 -10 -14 3 -5 -5 -5 -17
-2 -19 5 -20 7 -5 10 9 2 15 8 11 13 -3 5 -9 7 -13 5 -3 -3 -7 4 -7 15 0 19 1
18 18 -3 20 -26 24 -18 7 14 -8 16 -8 19 1 13 8 -5 11 -3 8 6 -3 8 -12 13 -19
11 -8 -2 -3 9 11 24 18 19 20 25 8 21 -13 -4 -16 -2 -11 11 3 9 10 23 16 30 6
7 6 12 0 12 -5 0 -10 6 -10 14 0 10 10 13 35 11 24 -2 31 0 21 6 -8 5 -10 9
-5 9 5 0 3 7 -4 15 -7 8 -17 12 -23 8 -6 -3 -7 -1 -3 5 4 7 2 12 -4 12 -6 0
-9 4 -5 9 3 6 14 9 25 8 10 -1 16 -5 14 -9 -3 -5 -10 -6 -15 -3 -5 4 -9 4 -9
1 0 -3 8 -10 19 -15 16 -9 18 -7 15 19 -2 17 1 30 6 30 5 0 8 8 8 18 0 9 1 22
3 27 2 6 0 11 -6 12 -5 1 -9 -5 -7 -14 2 -8 -1 -12 -7 -8 -16 9 -14 19 8 44
11 13 17 30 14 38 -4 10 -2 14 4 10 13 -8 13 26 0 34 -5 4 -6 12 -2 19 6 9 9
10 15 0 4 -7 9 -8 12 -4 2 5 -5 19 -17 32 l-22 22 2 -25 c2 -14 0 -23 -4 -21
-4 3 -8 -4 -8 -15 -1 -11 2 -17 7 -14 20 12 18 -15 -2 -29 -20 -14 -18 -21 5
-17 5 1 6 -3 2 -9 -3 -6 -11 -8 -16 -5 -5 4 -9 -1 -9 -9 0 -8 -5 -18 -12 -22
-6 -4 -8 -3 -5 3 9 15 19 65 19 101 0 17 3 32 7 32 9 0 6 50 -3 72 -4 9 -5 22
-1 28 4 6 3 9 -2 8 -15 -4 -53 22 -53 37 0 8 -5 15 -11 15 -5 0 -7 -4 -4 -10
3 -5 2 -10 -4 -10 -5 0 -8 16 -7 35 2 19 0 33 -4 30 -3 -2 -13 5 -20 16 -8 10
-21 19 -28 19 -8 0 -12 6 -9 15 4 8 1 17 -5 21 -6 4 -8 3 -5 -3 8 -13 -16 -24
-29 -15 -5 4 -11 22 -13 41 -3 39 -24 65 -64 80 -33 13 -44 13 -73 1z m337
-573 c-16 -16 -38 -17 -38 -1 0 7 5 10 10 7 6 -4 8 0 4 11 -6 14 -4 15 14 5
15 -8 18 -14 10 -22z m-81 -481 c0 -5 -3 -6 -7 -3 -3 4 -12 2 -20 -4 -9 -9
-13 -8 -13 0 0 6 5 11 11 11 8 0 7 6 -2 17 -13 15 -12 15 9 2 12 -8 22 -18 22
-23z m-373 -73 c0 -6 -6 -9 -13 -6 -6 2 -15 -1 -19 -6 -9 -15 -25 -4 -19 13 6
17 51 16 51 -1z m37 3 c-10 -8 -21 -12 -24 -10 -5 6 21 24 34 24 6 0 1 -6 -10
-14z m79 -4 c-4 -10 -8 -11 -13 -2 -6 9 -9 9 -14 1 -4 -6 -12 -9 -17 -5 -15 9
-2 20 24 20 17 0 23 -4 20 -14z"/>
<path d="M887 1125 c-4 -8 -3 -16 1 -19 4 -3 9 4 9 15 2 23 -3 25 -10 4z"/>
<path d="M1090 880 c0 -5 5 -10 11 -10 5 0 7 5 4 10 -3 6 -8 10 -11 10 -2 0
-4 -4 -4 -10z"/>
<path d="M1095 620 c-3 -5 -1 -10 4 -10 6 0 11 5 11 10 0 6 -2 10 -4 10 -3 0
-8 -4 -11 -10z"/>
<path d="M1093 555 c0 -8 4 -12 9 -9 5 3 6 10 3 15 -9 13 -12 11 -12 -6z"/>
<path d="M1030 520 c0 -5 5 -10 10 -10 6 0 10 5 10 10 0 6 -4 10 -10 10 -5 0
-10 -4 -10 -10z"/>
<path d="M1040 501 c-19 -16 -22 -22 -12 -34 10 -11 9 -17 -3 -27 -11 -9 -12
-16 -4 -26 6 -7 7 -19 3 -26 -6 -11 -5 -11 8 0 13 10 17 10 21 0 4 -10 6 -10
6 0 1 7 -6 15 -14 18 -8 4 -12 10 -9 15 3 5 11 6 17 3 7 -4 9 -4 5 1 -4 4 -2
15 5 23 6 9 8 13 2 10 -17 -10 -34 16 -19 29 6 7 14 10 16 7 3 -2 5 3 5 11 0
8 -1 15 -1 15 -1 0 -12 -9 -26 -19z m10 -55 c0 -2 -8 -10 -17 -17 -16 -13 -17
-12 -4 4 13 16 21 21 21 13z"/>
<path d="M1042 356 c7 -8 15 -12 17 -11 5 6 -10 25 -20 25 -5 0 -4 -6 3 -14z"/>
<path d="M993 292 c0 -12 5 -22 9 -22 11 0 10 12 -2 30 -7 12 -9 10 -7 -8z"/>
<path d="M1023 302 c-8 -5 -9 -13 -3 -22 8 -13 10 -12 10 3 0 11 4 15 12 11 7
-4 8 -3 4 4 -8 14 -8 14 -23 4z"/>
<path d="M947 89 c10 -10 10 -16 0 -28 -11 -14 -10 -14 6 -2 9 7 17 17 17 21
0 4 -8 11 -17 15 -14 5 -15 4 -6 -6z"/>
<path d="M470 62 c0 -4 9 -8 19 -8 11 0 17 4 15 8 -7 10 -34 10 -34 0z"/>
<path d="M760 46 c0 -2 7 -7 16 -10 8 -3 12 -2 9 4 -6 10 -25 14 -25 6z"/>
<path d="M970 46 c0 -2 7 -7 16 -10 8 -3 12 -2 9 4 -6 10 -25 14 -25 6z"/>
</g>
</svg>
